<svg width="18" height="18" viewBox="0 0 18 18" fill="none" xmlns="http://www.w3.org/2000/svg">
<path d="M6.69094 12.9769C6.69094 13.0331 6.62625 13.0781 6.54469 13.0781C6.45188 13.0866 6.38719 13.0416 6.38719 12.9769C6.38719 12.9206 6.45188 12.8756 6.53344 12.8756C6.61781 12.8672 6.69094 12.9122 6.69094 12.9769ZM5.81625 12.8503C5.79656 12.9066 5.85281 12.9713 5.93719 12.9881C6.01031 13.0163 6.09469 12.9881 6.11156 12.9319C6.12844 12.8756 6.075 12.811 5.99063 12.7856C5.9175 12.766 5.83594 12.7941 5.81625 12.8503ZM7.05938 12.8025C6.97781 12.8222 6.92156 12.8756 6.93 12.9403C6.93844 12.9966 7.01156 13.0331 7.09594 13.0135C7.1775 12.9938 7.23375 12.9403 7.22531 12.8841C7.21688 12.8306 7.14094 12.7941 7.05938 12.8025ZM8.91 2.02502C5.00906 2.02502 2.025 4.98659 2.025 8.88752C2.025 12.0066 3.98813 14.6756 6.79219 15.615C7.15219 15.6797 7.27875 15.4575 7.27875 15.2747C7.27875 15.1003 7.27031 14.1385 7.27031 13.5478C7.27031 13.5478 5.30156 13.9697 4.88813 12.7097C4.88813 12.7097 4.5675 11.8913 4.10625 11.6803C4.10625 11.6803 3.46219 11.2388 4.15125 11.2472C4.15125 11.2472 4.85156 11.3035 5.23688 11.9728C5.85281 13.0585 6.885 12.7463 7.28719 12.5606C7.35188 12.1106 7.53469 11.7985 7.73719 11.6128C6.165 11.4385 4.57875 11.2106 4.57875 8.50502C4.57875 7.73159 4.7925 7.34346 5.2425 6.84846C5.16938 6.66565 4.93031 5.9119 5.31563 4.93877C5.90344 4.75596 7.25625 5.69815 7.25625 5.69815C7.81875 5.54065 8.42344 5.45909 9.0225 5.45909C9.62156 5.45909 10.2263 5.54065 10.7888 5.69815C10.7888 5.69815 12.1416 4.75315 12.7294 4.93877C13.1147 5.91471 12.8756 6.66565 12.8025 6.84846C13.2525 7.34627 13.5281 7.7344 13.5281 8.50502C13.5281 11.2191 11.8716 11.4356 10.2994 11.6128C10.5581 11.835 10.7775 12.2569 10.7775 12.9178C10.7775 13.8656 10.7691 15.0385 10.7691 15.2691C10.7691 15.4519 10.8984 15.6741 11.2556 15.6094C14.0681 14.6756 15.975 12.0066 15.975 8.88752C15.975 4.98659 12.8109 2.02502 8.91 2.02502ZM4.75875 11.7253C4.72219 11.7535 4.73063 11.8181 4.77844 11.8716C4.82344 11.9166 4.88813 11.9363 4.92469 11.8997C4.96125 11.8716 4.95281 11.8069 4.905 11.7535C4.86 11.7085 4.79531 11.6888 4.75875 11.7253ZM4.455 11.4975C4.43531 11.5341 4.46344 11.5791 4.51969 11.6072C4.56469 11.6353 4.62094 11.6269 4.64063 11.5875C4.66031 11.551 4.63219 11.506 4.57594 11.4778C4.51969 11.461 4.47469 11.4694 4.455 11.4975ZM5.36625 12.4988C5.32125 12.5353 5.33813 12.6197 5.40281 12.6731C5.4675 12.7378 5.54906 12.7463 5.58563 12.7013C5.62219 12.6647 5.60531 12.5803 5.54906 12.5269C5.48719 12.4622 5.40281 12.4538 5.36625 12.4988ZM5.04563 12.0853C5.00063 12.1135 5.00063 12.1866 5.04563 12.2513C5.09063 12.316 5.16656 12.3441 5.20313 12.316C5.24813 12.2794 5.24813 12.2063 5.20313 12.1416C5.16375 12.0769 5.09063 12.0488 5.04563 12.0853Z" fill="#D4EB22"/>
</svg>
