<svg width="18" height="18" viewBox="0 0 18 18" fill="none" xmlns="http://www.w3.org/2000/svg">
<path d="M6.69093 12.9769C6.69093 13.0331 6.62624 13.0781 6.54468 13.0781C6.45187 13.0866 6.38718 13.0416 6.38718 12.9769C6.38718 12.9206 6.45187 12.8756 6.53343 12.8756C6.61781 12.8672 6.69093 12.9122 6.69093 12.9769ZM5.81624 12.8503C5.79656 12.9066 5.85281 12.9713 5.93718 12.9881C6.01031 13.0163 6.09468 12.9881 6.11156 12.9319C6.12843 12.8756 6.07499 12.811 5.99062 12.7856C5.91749 12.766 5.83593 12.7941 5.81624 12.8503ZM7.05937 12.8025C6.97781 12.8222 6.92156 12.8756 6.92999 12.9403C6.93843 12.9966 7.01156 13.0331 7.09593 13.0135C7.17749 12.9938 7.23374 12.9403 7.22531 12.8841C7.21687 12.8306 7.14093 12.7941 7.05937 12.8025ZM8.90999 2.02502C5.00906 2.02502 2.02499 4.98659 2.02499 8.88752C2.02499 12.0066 3.98812 14.6756 6.79218 15.615C7.15218 15.6797 7.27874 15.4575 7.27874 15.2747C7.27874 15.1003 7.27031 14.1385 7.27031 13.5478C7.27031 13.5478 5.30156 13.9697 4.88812 12.7097C4.88812 12.7097 4.56749 11.8913 4.10624 11.6803C4.10624 11.6803 3.46218 11.2388 4.15124 11.2472C4.15124 11.2472 4.85156 11.3035 5.23687 11.9728C5.85281 13.0585 6.88499 12.7463 7.28718 12.5606C7.35187 12.1106 7.53468 11.7985 7.73718 11.6128C6.16499 11.4385 4.57874 11.2106 4.57874 8.50502C4.57874 7.73159 4.79249 7.34346 5.24249 6.84846C5.16937 6.66565 4.93031 5.9119 5.31562 4.93877C5.90343 4.75596 7.25624 5.69815 7.25624 5.69815C7.81874 5.54065 8.42343 5.45909 9.02249 5.45909C9.62156 5.45909 10.2262 5.54065 10.7887 5.69815C10.7887 5.69815 12.1416 4.75315 12.7294 4.93877C13.1147 5.91471 12.8756 6.66565 12.8025 6.84846C13.2525 7.34627 13.5281 7.7344 13.5281 8.50502C13.5281 11.2191 11.8716 11.4356 10.2994 11.6128C10.5581 11.835 10.7775 12.2569 10.7775 12.9178C10.7775 13.8656 10.7691 15.0385 10.7691 15.2691C10.7691 15.4519 10.8984 15.6741 11.2556 15.6094C14.0681 14.6756 15.975 12.0066 15.975 8.88752C15.975 4.98659 12.8109 2.02502 8.90999 2.02502ZM4.75874 11.7253C4.72218 11.7535 4.73062 11.8181 4.77843 11.8716C4.82343 11.9166 4.88812 11.9363 4.92468 11.8997C4.96124 11.8716 4.95281 11.8069 4.90499 11.7535C4.85999 11.7085 4.79531 11.6888 4.75874 11.7253ZM4.45499 11.4975C4.43531 11.5341 4.46343 11.5791 4.51968 11.6072C4.56468 11.6353 4.62093 11.6269 4.64062 11.5875C4.66031 11.551 4.63218 11.506 4.57593 11.4778C4.51968 11.461 4.47468 11.4694 4.45499 11.4975ZM5.36624 12.4988C5.32124 12.5353 5.33812 12.6197 5.40281 12.6731C5.46749 12.7378 5.54906 12.7463 5.58562 12.7013C5.62218 12.6647 5.60531 12.5803 5.54906 12.5269C5.48718 12.4622 5.40281 12.4538 5.36624 12.4988ZM5.04562 12.0853C5.00062 12.1135 5.00062 12.1866 5.04562 12.2513C5.09062 12.316 5.16656 12.3441 5.20312 12.316C5.24812 12.2794 5.24812 12.2063 5.20312 12.1416C5.16374 12.0769 5.09062 12.0488 5.04562 12.0853Z" fill="white"/>
</svg>
