<svg width="18" height="18" viewBox="0 0 18 18" fill="none" xmlns="http://www.w3.org/2000/svg">
<path d="M15.9863 1.0603C16.2619 0.961863 16.5656 1.03218 16.7738 1.23749C16.9819 1.4428 17.0494 1.74936 16.9509 2.02499L11.9447 16.0003C11.8041 16.3912 11.4356 16.65 11.0222 16.65C10.6228 16.65 10.2628 16.4081 10.1138 16.0397L8.30813 11.5959C8.18156 11.2865 8.23781 10.9322 8.45438 10.679L11.1122 7.5178C11.2556 7.34624 11.2444 7.09592 11.0869 6.93843C10.9294 6.78093 10.6763 6.76968 10.5075 6.91311L7.34625 9.5653C7.09031 9.77905 6.73875 9.8353 6.42938 9.71155L1.97156 7.89749C1.60313 7.74842 1.36125 7.38843 1.36125 6.98905C1.36125 6.57561 1.62 6.20718 2.01094 6.06655L15.9863 1.0603Z" fill="#D4EB22"/>
</svg>
