<svg width="18" height="18" viewBox="0 0 18 18" fill="none" xmlns="http://www.w3.org/2000/svg">
<path d="M9.07031 9.8916L14.7206 4.2441L10.9969 14.6335L9.07031 9.8916ZM13.7644 3.29066L8.11687 8.93816L3.375 7.0116L13.7644 3.29066ZM1.97156 7.89754L7.75969 10.2488L10.1109 16.0369C10.26 16.4053 10.62 16.6472 11.0194 16.6472C11.4328 16.6472 11.8012 16.3885 11.9419 15.9975L16.9481 2.02504C17.0466 1.74941 16.9762 1.44566 16.7709 1.23754C16.5656 1.02941 16.2591 0.961912 15.9834 1.06035L2.00812 6.0666C1.61719 6.20722 1.35844 6.57566 1.35844 6.9891C1.35844 7.38847 1.60031 7.74847 1.96875 7.89754H1.97156Z" fill="#D4EB22"/>
</svg>
