<svg width="18" height="18" viewBox="0 0 18 18" fill="none" xmlns="http://www.w3.org/2000/svg">
<path d="M10.575 0.900024C14.1778 0.900024 17.1 3.82221 17.1 7.42502C17.1 7.79909 16.7991 8.10002 16.425 8.10002C16.0509 8.10002 15.75 7.79909 15.75 7.42502C15.75 4.56752 13.4325 2.25002 10.575 2.25002C10.2009 2.25002 9.9 1.94909 9.9 1.57502C9.9 1.20096 10.2009 0.900024 10.575 0.900024ZM10.8 6.30002C11.2978 6.30002 11.7 6.70221 11.7 7.20002C11.7 7.69784 11.2978 8.10002 10.8 8.10002C10.3022 8.10002 9.9 7.69784 9.9 7.20002C9.9 6.70221 10.3022 6.30002 10.8 6.30002ZM9.9 4.27502C9.9 3.90096 10.2009 3.60002 10.575 3.60002C12.6872 3.60002 14.4 5.31284 14.4 7.42502C14.4 7.79909 14.0991 8.10002 13.725 8.10002C13.3509 8.10002 13.05 7.79909 13.05 7.42502C13.05 6.05815 11.9419 4.95002 10.575 4.95002C10.2009 4.95002 9.9 4.64909 9.9 4.27502ZM4.95281 1.8394C5.50688 1.68752 6.08625 1.97159 6.30563 2.50034L7.44469 5.2369C7.63875 5.70096 7.50375 6.23815 7.11281 6.55877L5.8725 7.57409C6.78656 9.58784 8.37563 11.2303 10.3528 12.2119L11.4384 10.8844C11.7563 10.4935 12.2934 10.3613 12.7603 10.5525L15.4969 11.6944C16.0256 11.9138 16.3097 12.4931 16.1578 13.0472L16.1156 13.2019C15.6206 15.0216 13.8628 16.5741 11.7169 16.1213C6.795 15.0778 2.92219 11.205 1.87875 6.28315C1.42594 4.13721 2.97844 2.3794 4.79531 1.88159L4.95 1.8394H4.95281Z" fill="#D4EB22"/>
</svg>
