<svg width="18" height="18" viewBox="0 0 18 18" fill="none" xmlns="http://www.w3.org/2000/svg">
<path d="M6.30563 2.50315C6.08344 1.97159 5.50407 1.69034 4.95282 1.8394L4.79813 1.88159C2.98125 2.37659 1.42875 4.13721 1.88157 6.28034C2.925 11.2022 6.79782 15.075 11.7197 16.1185C13.8656 16.5741 15.6234 15.0188 16.1184 13.2019L16.1606 13.0472C16.3125 12.4931 16.0284 11.9138 15.4997 11.6944L12.7631 10.5553C12.2991 10.3613 11.7619 10.4963 11.4413 10.8872L10.3556 12.2147C8.37844 11.2331 6.78657 9.59065 5.8725 7.57409L7.11563 6.56159C7.50657 6.24377 7.63875 5.70659 7.4475 5.23971L6.30563 2.50315Z" fill="#D4EB22"/>
</svg>
