<svg width="34" height="34" viewBox="0 0 34 34" fill="none" xmlns="http://www.w3.org/2000/svg">
<path d="M24.1666 19.2578C24.1666 19.2578 24.1666 19.2632 24.1719 19.2632C24.6606 20.2938 24.9369 21.4466 24.9369 22.6632C24.9316 27.046 21.3828 30.6 17 30.6C12.6172 30.6 9.06843 27.046 9.06843 22.6685C9.06843 21.4519 9.34468 20.2991 9.83343 19.2685C9.92374 19.0772 10.0247 18.886 10.1309 18.7C10.3647 18.2963 10.6303 17.9191 10.9278 17.5685C12.3834 15.8366 14.5669 14.7369 17.0053 14.7369C18.7903 14.7369 20.4372 15.3266 21.7653 16.3253C22.2487 16.6919 22.6897 17.1063 23.0828 17.5738C23.3803 17.9244 23.6459 18.3069 23.8797 18.7053C23.9859 18.886 24.0816 19.0772 24.1719 19.2632L24.1666 19.2578ZM25.5691 18.2591C23.97 15.1566 20.7347 13.0316 17 13.0316C13.2653 13.0316 10.03 15.1566 8.43093 18.2591L3.39999 14.1685L17 3.40002L30.6 14.1685L25.5691 18.2644V18.2591Z" fill="white"/>
</svg>
