<svg width="32" height="32" viewBox="0 0 32 32" fill="none" xmlns="http://www.w3.org/2000/svg">
<path d="M9.59999 28.8H25.6C26.485 28.8 27.2 28.085 27.2 27.2C27.2 26.315 26.485 25.6 25.6 25.6V22.265C26.53 21.935 27.2 21.045 27.2 20V5.59995C27.2 4.27495 26.125 3.19995 24.8 3.19995H9.59999C6.94999 3.19995 4.79999 5.34995 4.79999 7.99995V24C4.79999 26.65 6.94999 28.8 9.59999 28.8ZM7.99999 24C7.99999 23.115 8.71499 22.4 9.59999 22.4H22.4V25.6H9.59999C8.71499 25.6 7.99999 24.885 7.99999 24ZM20.33 13.6H18.75C18.68 14.755 18.45 15.81 18.12 16.66C19.255 16.035 20.09 14.92 20.33 13.6ZM11.675 13.6C11.915 14.92 12.75 16.035 13.885 16.66C13.55 15.81 13.325 14.76 13.255 13.6H11.675ZM15.495 16.35C15.72 16.83 15.905 17.04 16.005 17.125C16.105 17.04 16.29 16.835 16.515 16.35C16.825 15.68 17.07 14.725 17.15 13.6H14.86C14.94 14.725 15.185 15.68 15.495 16.35ZM14.86 12H17.15C17.07 10.875 16.825 9.91995 16.515 9.24995C16.29 8.76995 16.105 8.55995 16.005 8.47495C15.905 8.55995 15.72 8.76495 15.495 9.24995C15.185 9.91995 14.94 10.875 14.86 12ZM20.335 12C20.095 10.68 19.26 9.56495 18.125 8.93995C18.46 9.78995 18.685 10.84 18.755 12H20.335ZM13.25 12C13.32 10.845 13.55 9.78995 13.88 8.93995C12.745 9.56495 11.91 10.68 11.67 12H13.25ZM9.59999 12.8C9.59999 9.26495 12.465 6.39995 16 6.39995C19.535 6.39995 22.4 9.26495 22.4 12.8C22.4 16.335 19.535 19.2 16 19.2C12.465 19.2 9.59999 16.335 9.59999 12.8Z" fill="white"/>
</svg>
